<svg width="40" height="40" viewBox="0 0 40 40" fill="none" xmlns="http://www.w3.org/2000/svg">
<g clip-path="url(#clip0_2096_1298)">
<path d="M35 25V20C35 11.7157 28.2843 5 20 5C11.7157 5 5 11.7157 5 20V25" stroke="#292929" stroke-width="2.5" stroke-linecap="round"/>
<path d="M5 25H10C10.9205 25 11.6667 25.7462 11.6667 26.6667V31.6667C11.6667 33.5076 10.1743 35 8.33333 35C6.49238 35 5 33.5076 5 31.6667V25Z" stroke="#292929" stroke-width="2.5" stroke-linecap="round"/>
<path d="M28.3333 26.6667C28.3333 25.7462 29.0795 25 30 25H35V31.6667C35 33.5076 33.5076 35 31.6666 35C29.8257 35 28.3333 33.5076 28.3333 31.6667V26.6667Z" stroke="#292929" stroke-width="2.5" stroke-linecap="round"/>
</g>
<defs>
<clipPath id="clip0_2096_1298">
<rect width="40" height="40" fill="white"/>
</clipPath>
</defs>
</svg>
