<svg width="20" height="20" viewBox="0 0 20 20" fill="none" xmlns="http://www.w3.org/2000/svg">
<path d="M8.33329 3.33332C7.00721 3.33332 5.73544 3.8601 4.79776 4.79778C3.86008 5.73546 3.33329 7.00723 3.33329 8.33332C3.33329 9.6594 3.86008 10.9312 4.79776 11.8688C5.73544 12.8065 7.00721 13.3333 8.33329 13.3333C9.65937 13.3333 10.9311 12.8065 11.8688 11.8688C12.8065 10.9312 13.3333 9.6594 13.3333 8.33332C13.3333 7.00723 12.8065 5.73546 11.8688 4.79778C10.9311 3.8601 9.65937 3.33332 8.33329 3.33332ZM1.66663 8.33332C1.66678 7.27237 1.92014 6.22677 2.40566 5.28343C2.89118 4.3401 3.59483 3.52626 4.45813 2.90955C5.32143 2.29285 6.31946 1.89109 7.36926 1.73767C8.41905 1.58426 9.49031 1.6836 10.494 2.02746C11.4977 2.37132 12.4048 2.94976 13.14 3.71471C13.8751 4.47965 14.4171 5.40901 14.7209 6.42555C15.0246 7.44208 15.0814 8.51644 14.8864 9.55932C14.6915 10.6022 14.2504 11.5835 13.6 12.4216L18.0891 16.9108C18.2409 17.068 18.3249 17.2785 18.323 17.497C18.3211 17.7155 18.2335 17.9245 18.079 18.079C17.9245 18.2335 17.7155 18.3211 17.497 18.323C17.2785 18.3249 17.068 18.2409 16.9108 18.0891L12.4216 13.6C11.4362 14.3651 10.2558 14.8383 9.01476 14.9658C7.77372 15.0933 6.52178 14.8701 5.40133 14.3214C4.28088 13.7727 3.33687 12.9206 2.67665 11.8621C2.01643 10.8035 1.66649 9.5809 1.66663 8.33332Z" fill="white"/>
</svg>
