<svg width="20" height="20" viewBox="0 0 20 20" fill="none" xmlns="http://www.w3.org/2000/svg">
<g clip-path="url(#clip0_2286_548)">
<path d="M-0.714233 1.33923H2.6191L4.85243 12.4976C4.92864 12.8812 5.13736 13.2259 5.44205 13.4711C5.74675 13.7164 6.12801 13.8467 6.5191 13.8392H14.6191C15.0102 13.8467 15.3914 13.7164 15.6961 13.4711C16.0008 13.2259 16.2096 12.8812 16.2858 12.4976L17.6191 5.5059H3.45243M6.78577 18.0059C6.78577 18.4661 6.41267 18.8392 5.95243 18.8392C5.4922 18.8392 5.1191 18.4661 5.1191 18.0059C5.1191 17.5457 5.4922 17.1726 5.95243 17.1726C6.41267 17.1726 6.78577 17.5457 6.78577 18.0059ZM15.9524 18.0059C15.9524 18.4661 15.5793 18.8392 15.1191 18.8392C14.6589 18.8392 14.2858 18.4661 14.2858 18.0059C14.2858 17.5457 14.6589 17.1726 15.1191 17.1726C15.5793 17.1726 15.9524 17.5457 15.9524 18.0059Z" stroke="#F8F9FA" stroke-width="2" stroke-linecap="round" stroke-linejoin="round"/>
</g>
<defs>
<clipPath id="clip0_2286_548">
<rect width="20" height="20" fill="white"/>
</clipPath>
</defs>
</svg>
