<svg width="28" height="28" viewBox="0 0 28 28" fill="none" xmlns="http://www.w3.org/2000/svg">
<g clip-path="url(#clip0_2089_967)">
<path d="M1.16663 1.16663H5.83329L8.95996 16.7883C9.06664 17.3254 9.35885 17.8079 9.78543 18.1513C10.212 18.4947 10.7458 18.6771 11.2933 18.6666H22.6333C23.1808 18.6771 23.7146 18.4947 24.1412 18.1513C24.5677 17.8079 24.8599 17.3254 24.9666 16.7883L26.8333 6.99996H6.99996M11.6666 24.5C11.6666 25.1443 11.1443 25.6666 10.5 25.6666C9.85563 25.6666 9.33329 25.1443 9.33329 24.5C9.33329 23.8556 9.85563 23.3333 10.5 23.3333C11.1443 23.3333 11.6666 23.8556 11.6666 24.5ZM24.5 24.5C24.5 25.1443 23.9776 25.6666 23.3333 25.6666C22.689 25.6666 22.1666 25.1443 22.1666 24.5C22.1666 23.8556 22.689 23.3333 23.3333 23.3333C23.9776 23.3333 24.5 23.8556 24.5 24.5Z" stroke="#F8F9FA" stroke-width="2" stroke-linecap="round" stroke-linejoin="round"/>
</g>
<defs>
<clipPath id="clip0_2089_967">
<rect width="28" height="28" fill="white"/>
</clipPath>
</defs>
</svg>
