<svg width="40" height="40" viewBox="0 0 40 40" fill="none" xmlns="http://www.w3.org/2000/svg">
<path d="M25 36.6667L24.3066 37.7067C24.6902 37.9625 25.1834 37.9863 25.5898 37.7688C25.9963 37.5513 26.25 37.1277 26.25 36.6667H25ZM20 33.3333L20.6934 32.2933C20.2735 32.0134 19.7265 32.0134 19.3066 32.2933L20 33.3333ZM15 36.6667H13.75C13.75 37.1277 14.0037 37.5513 14.4102 37.7688C14.8166 37.9863 15.3098 37.9625 15.6934 37.7067L15 36.6667ZM14.5847 5.8952L14.4844 7.14116L14.5847 5.8952ZM17.3911 4.73277L16.4391 3.92272L16.4391 3.92272L17.3911 4.73277ZM10.8865 9.47674L9.64054 9.57712L10.8865 9.47674ZM14.4767 5.8865L14.5771 4.64054L14.4767 5.8865ZM9.73277 12.3911L10.5428 13.3431L10.5428 13.3431L9.73277 12.3911ZM10.8952 9.58474L12.1412 9.48436L10.8952 9.58474ZM9.65025 17.5387L8.8402 18.4907L8.8402 18.4907L9.65025 17.5387ZM9.65025 12.4613L8.8402 11.5093L8.8402 11.5093L9.65025 12.4613ZM10.8952 20.4153L9.64924 20.3149H9.64924L10.8952 20.4153ZM9.73277 17.6089L10.5428 16.6569L10.5428 16.6569L9.73277 17.6089ZM14.4767 24.1135L14.5771 25.3595H14.5771L14.4767 24.1135ZM10.8865 20.5233L12.1325 20.6236L12.1325 20.6236L10.8865 20.5233ZM17.3911 25.2672L18.3431 24.4572L18.3431 24.4572L17.3911 25.2672ZM14.5847 24.1048L14.4844 22.8588H14.4844L14.5847 24.1048ZM22.5387 25.3498L23.4907 26.1598L23.4907 26.1598L22.5387 25.3498ZM17.4613 25.3498L16.5093 26.1598L16.5093 26.1598L17.4613 25.3498ZM25.4153 24.1048L25.5156 22.8588H25.5156L25.4153 24.1048ZM22.6089 25.2672L21.6569 24.4572L21.6569 24.4572L22.6089 25.2672ZM29.1135 20.5233L30.3595 20.4229V20.4229L29.1135 20.5233ZM25.5233 24.1135L25.4229 25.3595H25.4229L25.5233 24.1135ZM30.2672 17.6089L31.0773 18.5609L31.0773 18.5609L30.2672 17.6089ZM29.1048 20.4153L27.8588 20.5156V20.5156L29.1048 20.4153ZM30.3498 12.4613L31.1598 11.5093L31.1598 11.5093L30.3498 12.4613ZM30.3498 17.5387L29.5397 16.5867L29.5397 16.5867L30.3498 17.5387ZM29.1048 9.58474L27.8588 9.48436V9.48436L29.1048 9.58474ZM30.2672 12.3911L29.4572 13.3431L29.4572 13.3431L30.2672 12.3911ZM25.5233 5.8865L25.4229 4.64054V4.64054L25.5233 5.8865ZM29.1135 9.47675L30.3595 9.57713V9.57713L29.1135 9.47675ZM22.6089 4.73277L23.5609 3.92272L23.5609 3.92271L22.6089 4.73277ZM25.4153 5.8952L25.5156 7.14116H25.5156L25.4153 5.8952ZM22.5387 4.65025L21.5867 5.4603L21.5867 5.46031L22.5387 4.65025ZM17.4613 4.65025L18.4133 5.4603V5.4603L17.4613 4.65025ZM15 24.0973L15.0552 22.8485L15 24.0973ZM25 36.6667L25.6934 35.6266L20.6934 32.2933L20 33.3333L19.3066 34.3734L24.3066 37.7067L25 36.6667ZM20 33.3333L19.3066 32.2933L14.3066 35.6266L15 36.6667L15.6934 37.7067L20.6934 34.3734L20 33.3333ZM22.5387 4.65025L21.5867 5.46031L21.6569 5.54283L22.6089 4.73277L23.5609 3.92271L23.4907 3.84019L22.5387 4.65025ZM25.4153 5.8952L25.5156 7.14116L25.6236 7.13246L25.5233 5.8865L25.4229 4.64054L25.3149 4.64924L25.4153 5.8952ZM29.1135 9.47675L27.8675 9.37637L27.8588 9.48436L29.1048 9.58474L30.3508 9.68512L30.3595 9.57713L29.1135 9.47675ZM30.2672 12.3911L29.4572 13.3431L29.5397 13.4133L30.3498 12.4613L31.1598 11.5093L31.0773 11.4391L30.2672 12.3911ZM30.3498 17.5387L29.5397 16.5867L29.4572 16.6569L30.2672 17.6089L31.0773 18.5609L31.1598 18.4907L30.3498 17.5387ZM29.1048 20.4153L27.8588 20.5156L27.8675 20.6236L29.1135 20.5233L30.3595 20.4229L30.3508 20.3149L29.1048 20.4153ZM25.5233 24.1135L25.6236 22.8675L25.5156 22.8588L25.4153 24.1048L25.3149 25.3508L25.4229 25.3595L25.5233 24.1135ZM22.6089 25.2672L21.6569 24.4572L21.5867 24.5397L22.5387 25.3498L23.4907 26.1598L23.5609 26.0773L22.6089 25.2672ZM17.4613 25.3498L18.4133 24.5397L18.3431 24.4572L17.3911 25.2672L16.4391 26.0773L16.5093 26.1598L17.4613 25.3498ZM14.5847 24.1048L14.4844 22.8588L14.3764 22.8675L14.4767 24.1135L14.5771 25.3595L14.6851 25.3508L14.5847 24.1048ZM10.8865 20.5233L12.1325 20.6236L12.1412 20.5156L10.8952 20.4153L9.64924 20.3149L9.64054 20.4229L10.8865 20.5233ZM9.73277 17.6089L10.5428 16.6569L10.4603 16.5867L9.65025 17.5387L8.8402 18.4907L8.92272 18.5609L9.73277 17.6089ZM9.65025 12.4613L10.4603 13.4133L10.5428 13.3431L9.73277 12.3911L8.92272 11.4391L8.8402 11.5093L9.65025 12.4613ZM10.8952 9.58474L12.1412 9.48436L12.1325 9.37636L10.8865 9.47674L9.64054 9.57712L9.64924 9.68512L10.8952 9.58474ZM14.4767 5.8865L14.3764 7.13246L14.4844 7.14116L14.5847 5.8952L14.6851 4.64924L14.5771 4.64054L14.4767 5.8865ZM17.3911 4.73277L18.3431 5.54282L18.4133 5.4603L17.4613 4.65025L16.5093 3.8402L16.4391 3.92272L17.3911 4.73277ZM14.5847 5.8952L14.4844 7.14116C15.9527 7.25946 17.3885 6.66476 18.3431 5.54282L17.3911 4.73277L16.4391 3.92272C16.0052 4.43269 15.3526 4.70301 14.6851 4.64924L14.5847 5.8952ZM10.8865 9.47674L12.1325 9.37636C12.0294 8.09682 13.0968 7.02938 14.3764 7.13246L14.4767 5.8865L14.5771 4.64054C11.7621 4.41375 9.41375 6.76212 9.64054 9.57712L10.8865 9.47674ZM9.73277 12.3911L10.5428 13.3431C11.6648 12.3885 12.2595 10.9527 12.1412 9.48436L10.8952 9.58474L9.64924 9.68512C9.70301 10.3526 9.43269 11.0052 8.92272 11.4391L9.73277 12.3911ZM9.65025 17.5387L10.4603 16.5867C9.48263 15.7548 9.48263 14.2452 10.4603 13.4133L9.65025 12.4613L8.8402 11.5093C6.68934 13.3395 6.68933 16.6606 8.8402 18.4907L9.65025 17.5387ZM10.8952 20.4153L12.1412 20.5156C12.2595 19.0473 11.6648 17.6115 10.5428 16.6569L9.73277 17.6089L8.92272 18.5609C9.43269 18.9948 9.70301 19.6474 9.64924 20.3149L10.8952 20.4153ZM14.4767 24.1135L14.3764 22.8675C13.0968 22.9706 12.0294 21.9032 12.1325 20.6236L10.8865 20.5233L9.64054 20.4229C9.41375 23.2379 11.7621 25.5863 14.5771 25.3595L14.4767 24.1135ZM22.5387 25.3498L21.5867 24.5397C20.7548 25.5174 19.2452 25.5174 18.4133 24.5397L17.4613 25.3498L16.5093 26.1598C18.3395 28.3107 21.6606 28.3107 23.4907 26.1598L22.5387 25.3498ZM29.1135 20.5233L27.8675 20.6236C27.9706 21.9032 26.9032 22.9706 25.6236 22.8675L25.5233 24.1135L25.4229 25.3595C28.2379 25.5863 30.5863 23.2379 30.3595 20.4229L29.1135 20.5233ZM30.2672 17.6089L29.4572 16.6569C28.3352 17.6115 27.7405 19.0473 27.8588 20.5156L29.1048 20.4153L30.3508 20.3149C30.297 19.6474 30.5673 18.9948 31.0773 18.5609L30.2672 17.6089ZM30.3498 12.4613L29.5397 13.4133C30.5174 14.2452 30.5174 15.7548 29.5397 16.5867L30.3498 17.5387L31.1598 18.4907C33.3107 16.6606 33.3107 13.3395 31.1598 11.5093L30.3498 12.4613ZM29.1048 9.58474L27.8588 9.48436C27.7405 10.9527 28.3352 12.3885 29.4572 13.3431L30.2672 12.3911L31.0773 11.4391C30.5673 11.0052 30.297 10.3526 30.3508 9.68512L29.1048 9.58474ZM25.5233 5.8865L25.6236 7.13246C26.9032 7.02938 27.9706 8.09682 27.8675 9.37637L29.1135 9.47675L30.3595 9.57713C30.5863 6.76213 28.2379 4.41375 25.4229 4.64054L25.5233 5.8865ZM22.6089 4.73277L21.6569 5.54282C22.6115 6.66476 24.0473 7.25946 25.5156 7.14116L25.4153 5.8952L25.3149 4.64924C24.6474 4.70301 23.9948 4.43269 23.5609 3.92272L22.6089 4.73277ZM22.5387 4.65025L23.4907 3.8402C21.6606 1.68934 18.3395 1.68933 16.5093 3.8402L17.4613 4.65025L18.4133 5.4603C19.2452 4.48263 20.7548 4.48263 21.5867 5.4603L22.5387 4.65025ZM17.3911 25.2672L18.3431 24.4572C17.5127 23.4813 16.3185 22.9044 15.0552 22.8485L15 24.0973L14.9448 25.3461C15.5189 25.3715 16.0617 25.6338 16.4391 26.0773L17.3911 25.2672ZM15 24.0973L15.0552 22.8485C14.8661 22.8401 14.6754 22.8435 14.4844 22.8588L14.5847 24.1048L14.6851 25.3508C14.7722 25.3438 14.8589 25.3423 14.9448 25.3461L15 24.0973ZM15 36.6667H16.25V24.0973H15H13.75V36.6667H15ZM25.4153 24.1048L25.5156 22.8588C25.3246 22.8435 25.1339 22.8401 24.9448 22.8485L25 24.0973L25.0552 25.3461C25.1412 25.3423 25.2278 25.3438 25.3149 25.3508L25.4153 24.1048ZM25 24.0973L24.9448 22.8485C23.6816 22.9044 22.4873 23.4813 21.6569 24.4572L22.6089 25.2672L23.5609 26.0773C23.9383 25.6338 24.4811 25.3715 25.0552 25.3461L25 24.0973ZM25 24.0973H23.75V36.6667H25H26.25V24.0973H25Z" fill="#292929"/>
<path d="M23.3333 13.3333L18.3333 18.3333L16.6666 16.6666" stroke="#292929" stroke-width="2.5" stroke-linecap="round" stroke-linejoin="round"/>
</svg>
