<svg width="24" height="24" viewBox="0 0 24 24" fill="none" xmlns="http://www.w3.org/2000/svg">
<g clip-path="url(#clip0_26_1397)">
<path d="M1.875 4.84375C1.875 4.37617 2.25117 4 2.71875 4H4.31836C5.0918 4 5.77734 4.45 6.09727 5.125H20.5465C21.4711 5.125 22.1461 6.00391 21.9035 6.89688L20.4621 12.2512C20.1633 13.3551 19.1613 14.125 18.0188 14.125H7.87617L8.06602 15.127C8.14336 15.5242 8.49141 15.8125 8.8957 15.8125H19.0312C19.4988 15.8125 19.875 16.1887 19.875 16.6562C19.875 17.1238 19.4988 17.5 19.0312 17.5H8.8957C7.6793 17.5 6.63516 16.6352 6.41016 15.4434L4.59609 5.91602C4.57148 5.78242 4.45547 5.6875 4.31836 5.6875H2.71875C2.25117 5.6875 1.875 5.31133 1.875 4.84375ZM6.375 20.3125C6.375 20.0909 6.41865 19.8715 6.50345 19.6667C6.58826 19.462 6.71256 19.276 6.86926 19.1193C7.02596 18.9626 7.21198 18.8383 7.41672 18.7535C7.62146 18.6686 7.84089 18.625 8.0625 18.625C8.28411 18.625 8.50354 18.6686 8.70828 18.7535C8.91302 18.8383 9.09904 18.9626 9.25574 19.1193C9.41244 19.276 9.53674 19.462 9.62155 19.6667C9.70635 19.8715 9.75 20.0909 9.75 20.3125C9.75 20.5341 9.70635 20.7535 9.62155 20.9583C9.53674 21.163 9.41244 21.349 9.25574 21.5057C9.09904 21.6624 8.91302 21.7867 8.70828 21.8715C8.50354 21.9564 8.28411 22 8.0625 22C7.84089 22 7.62146 21.9564 7.41672 21.8715C7.21198 21.7867 7.02596 21.6624 6.86926 21.5057C6.71256 21.349 6.58826 21.163 6.50345 20.9583C6.41865 20.7535 6.375 20.5341 6.375 20.3125ZM18.1875 18.625C18.6351 18.625 19.0643 18.8028 19.3807 19.1193C19.6972 19.4357 19.875 19.8649 19.875 20.3125C19.875 20.7601 19.6972 21.1893 19.3807 21.5057C19.0643 21.8222 18.6351 22 18.1875 22C17.7399 22 17.3107 21.8222 16.9943 21.5057C16.6778 21.1893 16.5 20.7601 16.5 20.3125C16.5 19.8649 16.6778 19.4357 16.9943 19.1193C17.3107 18.8028 17.7399 18.625 18.1875 18.625Z" fill="#F6F7F8"/>
</g>
<defs>
<clipPath id="clip0_26_1397">
<path d="M1.875 4H22.125V22H1.875V4Z" fill="white"/>
</clipPath>
</defs>
</svg>
